# xmcd
#
# Track frame offsets:
#	150
#	14315
#	29220
#	44005
#	62970
#	79012
#	94630
#	110093
#	122353
#	136005
#	152942
#
# Disc length: 2310 seconds
#
# Revision: 0
# Processed by: cddbd v1.5.2PL0 Copyright (c) Steve Scherf et al.
# Submitted via: audiograbber 1.83.01
#
DISCID=9209040b
DTITLE=Zach Huckabee - Tequila Angel
DYEAR=2007
DGENRE=Country
TTITLE0=Tequila Angel
TTITLE1=Can't Stop the Rain
TTITLE2=Deadman
TTITLE3=Joe and Emma
TTITLE4=Think of Me
TTITLE5=Feelin' No Pain
TTITLE6=Long Day
TTITLE7=Sunny Side of the Rain
TTITLE8=Just Feels Right
TTITLE9=Blaze of Glory
TTITLE10=Home Again
EXTD=
EXTT0=
EXTT1=
EXTT2=
EXTT3=
EXTT4=
EXTT5=
EXTT6=
EXTT7=
EXTT8=
EXTT9=
EXTT10=
PLAYORDER=
